{
	"asset":{
		"generator":"Khronos glTF Blender I/O v5.2.39",
		"version":"2.0"
	},
	"extensionsUsed":[
		"BEVY_skein"
	],
	"scene":0,
	"scenes":[
		{
			"name":"Level",
			"nodes":[
				27
			]
		}
	],
	"nodes":[
		{
			"mesh":0,
			"name":"CombatLabel",
			"rotation":[
				0.5,
				0.5,
				-0.5,
				0.5
			],
			"scale":[
				2,
				2,
				2
			],
			"translation":[
				-125,
				10,
				-47
			]
		},
		{
			"mesh":1,
			"name":"CombatZone",
			"scale":[
				15,
				1,
				15
			],
			"translation":[
				-120,
				2,
				-50
			]
		},
		{
			"mesh":2,
			"name":"ExplorationLabel",
			"rotation":[
				0.5,
				0.5,
				-0.5,
				0.5
			],
			"scale":[
				2,
				2,
				2
			],
			"translation":[
				-125,
				10,
				-75
			]
		},
		{
			"mesh":3,
			"name":"ExplorationZone",
			"scale":[
				15,
				1,
				15
			],
			"translation":[
				-120,
				2,
				-80
			]
		},
		{
			"children":[
				0,
				1,
				2,
				3
			],
			"name":"GameStates"
		},
		{
			"mesh":4,
			"name":"CosmicSphere",
			"scale":[
				10,
				10,
				10
			],
			"translation":[
				75,
				-41.27000045776367,
				155
			]
		},
		{
			"mesh":5,
			"name":"Rock",
			"scale":[
				3.961214542388916,
				3.961214542388916,
				3.961214542388916
			],
			"translation":[
				0,
				11.160351753234863,
				0
			]
		},
		{
			"children":[
				5,
				6
			],
			"name":"Points of Interest"
		},
		{
			"mesh":6,
			"name":"10",
			"rotation":[
				0.08715574443340302,
				0,
				0,
				0.9961947202682495
			],
			"scale":[
				10,
				10,
				10
			],
			"translation":[
				60,
				2.8500001430511475,
				-100
			]
		},
		{
			"mesh":7,
			"name":"10.label",
			"rotation":[
				0.7071068286895752,
				0,
				0,
				0.7071068286895752
			],
			"scale":[
				3,
				1,
				3
			],
			"translation":[
				58.540000915527344,
				6.0199995040893555,
				-106.95000457763672
			]
		},
		{
			"mesh":8,
			"name":"20",
			"rotation":[
				0.1736481934785843,
				0,
				0,
				0.9848078489303589
			],
			"scale":[
				10,
				10,
				10
			],
			"translation":[
				80,
				4.429999351501465,
				-99.56999969482422
			]
		},
		{
			"mesh":9,
			"name":"20.label",
			"rotation":[
				0.7071068286895752,
				0,
				0,
				0.7071068286895752
			],
			"scale":[
				3,
				1,
				3
			],
			"translation":[
				78.62999725341797,
				9.75,
				-107.1199951171875
			]
		},
		{
			"mesh":10,
			"name":"30",
			"rotation":[
				0.2588190734386444,
				0,
				0,
				0.965925931930542
			],
			"scale":[
				10,
				10,
				10
			],
			"translation":[
				100,
				5.969999313354492,
				-98.79999542236328
			]
		},
		{
			"mesh":11,
			"name":"30.label",
			"rotation":[
				0.7071068286895752,
				0,
				0,
				0.7071068286895752
			],
			"scale":[
				3,
				1,
				3
			],
			"translation":[
				98.61000061035156,
				12.550000190734863,
				-105.27999877929688
			]
		},
		{
			"mesh":12,
			"name":"40",
			"rotation":[
				0.3420201539993286,
				0,
				0,
				0.9396927356719971
			],
			"scale":[
				10,
				10,
				10
			],
			"translation":[
				120,
				7.409998893737793,
				-97.83999633789062
			]
		},
		{
			"mesh":13,
			"name":"40.label",
			"rotation":[
				0.7071068286895752,
				0,
				0,
				0.7071068286895752
			],
			"scale":[
				3,
				1,
				3
			],
			"translation":[
				118.80000305175781,
				15.319999694824219,
				-103.9800033569336
			]
		},
		{
			"mesh":14,
			"name":"50",
			"rotation":[
				0.4226182699203491,
				0,
				0,
				0.9063078165054321
			],
			"scale":[
				10,
				10,
				10
			],
			"translation":[
				140,
				8.629999160766602,
				-96.6199951171875
			]
		},
		{
			"mesh":15,
			"name":"50.label",
			"rotation":[
				0.7071068286895752,
				0,
				0,
				0.7071068286895752
			],
			"scale":[
				3,
				1,
				3
			],
			"translation":[
				138.489990234375,
				17,
				-101.30999755859375
			]
		},
		{
			"mesh":16,
			"name":"60",
			"rotation":[
				0.5,
				0,
				0,
				0.8660253882408142
			],
			"scale":[
				10,
				10,
				10
			],
			"translation":[
				160,
				9.69999885559082,
				-95.20999145507812
			]
		},
		{
			"mesh":17,
			"name":"60.label",
			"rotation":[
				0.7071068286895752,
				0,
				0,
				0.7071068286895752
			],
			"scale":[
				3,
				1,
				3
			],
			"translation":[
				158.6300048828125,
				19.40999984741211,
				-99.29000091552734
			]
		},
		{
			"mesh":18,
			"name":"CurvedStairs",
			"scale":[
				1,
				1,
				10
			],
			"translation":[
				80,
				0,
				-120.01000213623047
			]
		},
		{
			"mesh":19,
			"name":"Stairs",
			"scale":[
				1,
				1,
				10
			],
			"translation":[
				80,
				0,
				-120.01000213623047
			]
		},
		{
			"mesh":20,
			"name":"StairsCurve",
			"translation":[
				48,
				1,
				-121
			]
		},
		{
			"children":[
				8,
				9,
				10,
				11,
				12,
				13,
				14,
				15,
				16,
				17,
				18,
				19,
				20,
				21,
				22
			],
			"name":"Slopes"
		},
		{
			"mesh":21,
			"name":"Floor",
			"scale":[
				200,
				1,
				200
			]
		},
		{
			"mesh":22,
			"name":"Wall",
			"rotation":[
				0.5,
				-0.5,
				0.5,
				0.5
			],
			"scale":[
				200,
				1,
				10
			],
			"translation":[
				-200,
				10,
				0
			]
		},
		{
			"children":[
				24,
				25
			],
			"name":"Terrain"
		},
		{
			"children":[
				4,
				7,
				23,
				26
			],
			"name":"Scene Collection"
		}
	],
	"materials":[
		{
			"doubleSided":true,
			"name":"Material.White",
			"pbrMetallicRoughness":{
				"metallicFactor":0
			}
		},
		{
			"doubleSided":true,
			"name":"Material.Red",
			"pbrMetallicRoughness":{
				"baseColorFactor":[
					0.8003629446029663,
					0.08559459447860718,
					0.07104407995939255,
					1
				],
				"metallicFactor":0,
				"roughnessFactor":0.5
			}
		},
		{
			"doubleSided":true,
			"name":"Material.Green",
			"pbrMetallicRoughness":{
				"baseColorFactor":[
					0,
					0.8003778457641602,
					0.002737459260970354,
					1
				],
				"metallicFactor":0,
				"roughnessFactor":0.5
			}
		},
		{
			"doubleSided":true,
			"name":"Material.Placeholder.Wall",
			"pbrMetallicRoughness":{
				"metallicFactor":0,
				"roughnessFactor":0.5
			}
		},
		{
			"doubleSided":true,
			"name":"Material.Placeholder.Stairs",
			"pbrMetallicRoughness":{
				"metallicFactor":0,
				"roughnessFactor":0.5
			}
		},
		{
			"doubleSided":true,
			"name":"Material.Placeholder",
			"pbrMetallicRoughness":{
				"metallicFactor":0,
				"roughnessFactor":0.5
			}
		}
	],
	"meshes":[
		{
			"name":"Text.002",
			"primitives":[
				{
					"attributes":{
						"POSITION":0,
						"NORMAL":1,
						"TEXCOORD_0":2,
						"TANGENT":3
					},
					"indices":4,
					"material":0
				}
			]
		},
		{
			"extensions":{
				"BEVY_skein":{
					"components":[
						{
							"avian3d::collision::collider::Sensor":{}
						},
						{
							"avian3d::collision::collider::constructor::ColliderConstructor":"TrimeshFromMesh"
						},
						{
							"bevy_new_3d_rpg::game::mood::Mood":"Combat"
						}
					]
				}
			},
			"extras":{
				"skein":[
					{
						"avian3d::collision::collider::Sensor":{}
					},
					{
						"avian3d::collision::collider::constructor::ColliderConstructor":"TrimeshFromMesh"
					},
					{
						"bevy_new_3d_rpg::game::mood::Mood":"Combat"
					}
				]
			},
			"name":"CombatZone",
			"primitives":[
				{
					"attributes":{
						"POSITION":5,
						"NORMAL":6,
						"TEXCOORD_0":7,
						"TANGENT":8
					},
					"indices":9,
					"material":1
				}
			]
		},
		{
			"name":"Text",
			"primitives":[
				{
					"attributes":{
						"POSITION":10,
						"NORMAL":11,
						"TEXCOORD_0":12,
						"TANGENT":13
					},
					"indices":14,
					"material":0
				}
			]
		},
		{
			"extensions":{
				"BEVY_skein":{
					"components":[
						{
							"avian3d::collision::collider::Sensor":{}
						},
						{
							"avian3d::collision::collider::constructor::ColliderConstructor":"TrimeshFromMesh"
						},
						{
							"bevy_new_3d_rpg::game::mood::Mood":"Exploration"
						}
					]
				}
			},
			"extras":{
				"skein":[
					{
						"avian3d::collision::collider::Sensor":{}
					},
					{
						"avian3d::collision::collider::constructor::ColliderConstructor":"TrimeshFromMesh"
					},
					{
						"bevy_new_3d_rpg::game::mood::Mood":"Exploration"
					}
				]
			},
			"name":"ExplorationZone",
			"primitives":[
				{
					"attributes":{
						"POSITION":15,
						"NORMAL":16,
						"TEXCOORD_0":17,
						"TANGENT":18
					},
					"indices":9,
					"material":2
				}
			]
		},
		{
			"extensions":{
				"BEVY_skein":{
					"components":[
						{
							"bevy_new_3d_rpg::scene::cosmic_sphere::CosmicSphere":{}
						},
						{
							"avian3d::dynamics::rigid_body::RigidBody":"Kinematic"
						}
					]
				}
			},
			"extras":{
				"skein":[
					{
						"bevy_new_3d_rpg::scene::cosmic_sphere::CosmicSphere":{}
					},
					{
						"avian3d::dynamics::rigid_body::RigidBody":"Kinematic"
					}
				]
			},
			"name":"Sphere.001",
			"primitives":[
				{
					"attributes":{
						"POSITION":19,
						"NORMAL":20,
						"TEXCOORD_0":21,
						"TANGENT":22
					},
					"indices":23
				}
			]
		},
		{
			"extensions":{
				"BEVY_skein":{
					"components":[
						{
							"avian3d::collision::collider::constructor::ColliderConstructor":"TrimeshFromMesh"
						},
						{
							"avian3d::dynamics::rigid_body::RigidBody":"Static"
						}
					]
				}
			},
			"extras":{
				"skein":[
					{
						"avian3d::collision::collider::constructor::ColliderConstructor":"TrimeshFromMesh"
					},
					{
						"avian3d::dynamics::rigid_body::RigidBody":"Static"
					}
				]
			},
			"name":"Rock",
			"primitives":[
				{
					"attributes":{
						"POSITION":24,
						"NORMAL":25,
						"TEXCOORD_0":26,
						"TANGENT":27
					},
					"indices":28,
					"material":3
				}
			]
		},
		{
			"extensions":{
				"BEVY_skein":{
					"components":[
						{
							"avian3d::dynamics::rigid_body::RigidBody":"Static"
						},
						{
							"avian3d::collision::collider::constructor::ColliderConstructor":"TrimeshFromMesh"
						}
					]
				}
			},
			"extras":{
				"skein":[
					{
						"avian3d::dynamics::rigid_body::RigidBody":"Static"
					},
					{
						"avian3d::collision::collider::constructor::ColliderConstructor":"TrimeshFromMesh"
					}
				]
			},
			"name":"10.Plane",
			"primitives":[
				{
					"attributes":{
						"POSITION":29,
						"NORMAL":30,
						"TEXCOORD_0":31,
						"TANGENT":32
					},
					"indices":33,
					"material":3
				}
			]
		},
		{
			"name":"10label",
			"primitives":[
				{
					"attributes":{
						"POSITION":34,
						"NORMAL":35,
						"TEXCOORD_0":36,
						"TANGENT":37
					},
					"indices":38
				}
			]
		},
		{
			"extensions":{
				"BEVY_skein":{
					"components":[
						{
							"avian3d::dynamics::rigid_body::RigidBody":"Static"
						},
						{
							"avian3d::collision::collider::constructor::ColliderConstructor":"TrimeshFromMesh"
						}
					]
				}
			},
			"extras":{
				"skein":[
					{
						"avian3d::dynamics::rigid_body::RigidBody":"Static"
					},
					{
						"avian3d::collision::collider::constructor::ColliderConstructor":"TrimeshFromMesh"
					}
				]
			},
			"name":"20.Plane",
			"primitives":[
				{
					"attributes":{
						"POSITION":39,
						"NORMAL":40,
						"TEXCOORD_0":41,
						"TANGENT":42
					},
					"indices":33,
					"material":3
				}
			]
		},
		{
			"name":"20label",
			"primitives":[
				{
					"attributes":{
						"POSITION":43,
						"NORMAL":44,
						"TEXCOORD_0":45,
						"TANGENT":46
					},
					"indices":47
				}
			]
		},
		{
			"extensions":{
				"BEVY_skein":{
					"components":[
						{
							"avian3d::dynamics::rigid_body::RigidBody":"Static"
						},
						{
							"avian3d::collision::collider::constructor::ColliderConstructor":"TrimeshFromMesh"
						}
					]
				}
			},
			"extras":{
				"skein":[
					{
						"avian3d::dynamics::rigid_body::RigidBody":"Static"
					},
					{
						"avian3d::collision::collider::constructor::ColliderConstructor":"TrimeshFromMesh"
					}
				]
			},
			"name":"30.Plane",
			"primitives":[
				{
					"attributes":{
						"POSITION":48,
						"NORMAL":49,
						"TEXCOORD_0":50,
						"TANGENT":51
					},
					"indices":33,
					"material":3
				}
			]
		},
		{
			"name":"30label",
			"primitives":[
				{
					"attributes":{
						"POSITION":52,
						"NORMAL":53,
						"TEXCOORD_0":54,
						"TANGENT":55
					},
					"indices":56
				}
			]
		},
		{
			"extensions":{
				"BEVY_skein":{
					"components":[
						{
							"avian3d::dynamics::rigid_body::RigidBody":"Static"
						},
						{
							"avian3d::collision::collider::constructor::ColliderConstructor":"TrimeshFromMesh"
						}
					]
				}
			},
			"extras":{
				"skein":[
					{
						"avian3d::dynamics::rigid_body::RigidBody":"Static"
					},
					{
						"avian3d::collision::collider::constructor::ColliderConstructor":"TrimeshFromMesh"
					}
				]
			},
			"name":"40.Plane",
			"primitives":[
				{
					"attributes":{
						"POSITION":57,
						"NORMAL":58,
						"TEXCOORD_0":59,
						"TANGENT":60
					},
					"indices":33,
					"material":3
				}
			]
		},
		{
			"name":"40label",
			"primitives":[
				{
					"attributes":{
						"POSITION":61,
						"NORMAL":62,
						"TEXCOORD_0":63,
						"TANGENT":64
					},
					"indices":65
				}
			]
		},
		{
			"extensions":{
				"BEVY_skein":{
					"components":[
						{
							"avian3d::dynamics::rigid_body::RigidBody":"Static"
						},
						{
							"avian3d::collision::collider::constructor::ColliderConstructor":"TrimeshFromMesh"
						}
					]
				}
			},
			"extras":{
				"skein":[
					{
						"avian3d::dynamics::rigid_body::RigidBody":"Static"
					},
					{
						"avian3d::collision::collider::constructor::ColliderConstructor":"TrimeshFromMesh"
					}
				]
			},
			"name":"50.Plane",
			"primitives":[
				{
					"attributes":{
						"POSITION":66,
						"NORMAL":67,
						"TEXCOORD_0":68,
						"TANGENT":69
					},
					"indices":33,
					"material":3
				}
			]
		},
		{
			"name":"50label",
			"primitives":[
				{
					"attributes":{
						"POSITION":70,
						"NORMAL":71,
						"TEXCOORD_0":72,
						"TANGENT":73
					},
					"indices":74
				}
			]
		},
		{
			"extensions":{
				"BEVY_skein":{
					"components":[
						{
							"avian3d::dynamics::rigid_body::RigidBody":"Static"
						},
						{
							"avian3d::collision::collider::constructor::ColliderConstructor":"TrimeshFromMesh"
						}
					]
				}
			},
			"extras":{
				"skein":[
					{
						"avian3d::dynamics::rigid_body::RigidBody":"Static"
					},
					{
						"avian3d::collision::collider::constructor::ColliderConstructor":"TrimeshFromMesh"
					}
				]
			},
			"name":"60.Plane",
			"primitives":[
				{
					"attributes":{
						"POSITION":75,
						"NORMAL":76,
						"TEXCOORD_0":77,
						"TANGENT":78
					},
					"indices":33,
					"material":3
				}
			]
		},
		{
			"name":"60label",
			"primitives":[
				{
					"attributes":{
						"POSITION":79,
						"NORMAL":80,
						"TEXCOORD_0":81,
						"TANGENT":82
					},
					"indices":83
				}
			]
		},
		{
			"name":"Stairs",
			"primitives":[
				{
					"attributes":{
						"POSITION":84,
						"NORMAL":85,
						"TEXCOORD_0":86,
						"TANGENT":87
					},
					"indices":88,
					"material":4
				}
			]
		},
		{
			"extensions":{
				"BEVY_skein":{
					"components":[
						{
							"avian3d::dynamics::rigid_body::RigidBody":"Static"
						},
						{
							"avian3d::collision::collider::constructor::ColliderConstructor":"TrimeshFromMesh"
						}
					]
				}
			},
			"extras":{
				"skein":[
					{
						"avian3d::dynamics::rigid_body::RigidBody":"Static"
					},
					{
						"avian3d::collision::collider::constructor::ColliderConstructor":"TrimeshFromMesh"
					}
				]
			},
			"name":"Stair",
			"primitives":[
				{
					"attributes":{
						"POSITION":89,
						"NORMAL":90,
						"TEXCOORD_0":91,
						"TANGENT":92
					},
					"indices":88,
					"material":3
				}
			]
		},
		{
			"name":"Mesh",
			"primitives":[
				{
					"attributes":{
						"POSITION":93
					},
					"indices":94,
					"mode":1
				}
			]
		},
		{
			"extensions":{
				"BEVY_skein":{
					"components":[
						{
							"avian3d::dynamics::rigid_body::RigidBody":"Static"
						},
						{
							"avian3d::collision::collider::constructor::ColliderConstructor":"TrimeshFromMesh"
						}
					]
				}
			},
			"extras":{
				"skein":[
					{
						"avian3d::dynamics::rigid_body::RigidBody":"Static"
					},
					{
						"avian3d::collision::collider::constructor::ColliderConstructor":"TrimeshFromMesh"
					}
				]
			},
			"name":"Floor",
			"primitives":[
				{
					"attributes":{
						"POSITION":95,
						"NORMAL":96,
						"TEXCOORD_0":97,
						"TANGENT":98
					},
					"indices":99,
					"material":5
				}
			]
		},
		{
			"extensions":{
				"BEVY_skein":{
					"components":[
						{
							"avian3d::collision::collider::constructor::ColliderConstructor":"TrimeshFromMesh"
						},
						{
							"avian3d::dynamics::rigid_body::RigidBody":"Static"
						}
					]
				}
			},
			"extras":{
				"skein":[
					{
						"avian3d::collision::collider::constructor::ColliderConstructor":"TrimeshFromMesh"
					},
					{
						"avian3d::dynamics::rigid_body::RigidBody":"Static"
					}
				]
			},
			"name":"Wall",
			"primitives":[
				{
					"attributes":{
						"POSITION":100,
						"NORMAL":101,
						"TEXCOORD_0":102,
						"TANGENT":103
					},
					"indices":104,
					"material":3
				}
			]
		}
	],
	"accessors":[
		{
			"bufferView":0,
			"componentType":5126,
			"count":633,
			"max":[
				3.2900002002716064,
				0,
				0.009000000543892384
			],
			"min":[
				0.04800000041723251,
				0,
				-0.6910000443458557
			],
			"type":"VEC3"
		},
		{
			"bufferView":1,
			"componentType":5126,
			"count":633,
			"type":"VEC3"
		},
		{
			"bufferView":2,
			"componentType":5126,
			"count":633,
			"type":"VEC2"
		},
		{
			"bufferView":3,
			"componentType":5126,
			"count":633,
			"type":"VEC4"
		},
		{
			"bufferView":4,
			"componentType":5123,
			"count":1881,
			"type":"SCALAR"
		},
		{
			"bufferView":5,
			"componentType":5126,
			"count":392,
			"max":[
				1,
				1,
				1
			],
			"min":[
				-1,
				-1,
				-1
			],
			"type":"VEC3"
		},
		{
			"bufferView":6,
			"componentType":5126,
			"count":392,
			"type":"VEC3"
		},
		{
			"bufferView":7,
			"componentType":5126,
			"count":392,
			"type":"VEC2"
		},
		{
			"bufferView":8,
			"componentType":5126,
			"count":392,
			"type":"VEC4"
		},
		{
			"bufferView":9,
			"componentType":5123,
			"count":576,
			"type":"SCALAR"
		},
		{
			"bufferView":10,
			"componentType":5126,
			"count":694,
			"max":[
				4.63700008392334,
				0,
				0.23000000417232513
			],
			"min":[
				0.07500000298023224,
				0,
				-0.6820000410079956
			],
			"type":"VEC3"
		},
		{
			"bufferView":11,
			"componentType":5126,
			"count":694,
			"type":"VEC3"
		},
		{
			"bufferView":12,
			"componentType":5126,
			"count":694,
			"type":"VEC2"
		},
		{
			"bufferView":13,
			"componentType":5126,
			"count":694,
			"type":"VEC4"
		},
		{
			"bufferView":14,
			"componentType":5123,
			"count":2034,
			"type":"SCALAR"
		},
		{
			"bufferView":15,
			"componentType":5126,
			"count":392,
			"max":[
				1,
				1,
				1
			],
			"min":[
				-1,
				-1,
				-1
			],
			"type":"VEC3"
		},
		{
			"bufferView":16,
			"componentType":5126,
			"count":392,
			"type":"VEC3"
		},
		{
			"bufferView":17,
			"componentType":5126,
			"count":392,
			"type":"VEC2"
		},
		{
			"bufferView":18,
			"componentType":5126,
			"count":392,
			"type":"VEC4"
		},
		{
			"bufferView":19,
			"componentType":5126,
			"count":1984,
			"max":[
				0.9999997019767761,
				1,
				0.9999993443489075
			],
			"min":[
				-0.9999990463256836,
				-1,
				-1
			],
			"type":"VEC3"
		},
		{
			"bufferView":20,
			"componentType":5126,
			"count":1984,
			"type":"VEC3"
		},
		{
			"bufferView":21,
			"componentType":5126,
			"count":1984,
			"type":"VEC2"
		},
		{
			"bufferView":22,
			"componentType":5126,
			"count":1984,
			"type":"VEC4"
		},
		{
			"bufferView":23,
			"componentType":5123,
			"count":2880,
			"type":"SCALAR"
		},
		{
			"bufferView":24,
			"componentType":5126,
			"count":17776,
			"max":[
				5.05569314956665,
				6.869199752807617,
				3.8069913387298584
			],
			"min":[
				-4.6311445236206055,
				-3.5824410915374756,
				-3.818389892578125
			],
			"type":"VEC3"
		},
		{
			"bufferView":25,
			"componentType":5126,
			"count":17776,
			"type":"VEC3"
		},
		{
			"bufferView":26,
			"componentType":5126,
			"count":17776,
			"type":"VEC2"
		},
		{
			"bufferView":27,
			"componentType":5126,
			"count":17776,
			"type":"VEC4"
		},
		{
			"bufferView":28,
			"componentType":5123,
			"count":26520,
			"type":"SCALAR"
		},
		{
			"bufferView":29,
			"componentType":5126,
			"count":4,
			"max":[
				1,
				0,
				1
			],
			"min":[
				-1,
				0,
				-1
			],
			"type":"VEC3"
		},
		{
			"bufferView":30,
			"componentType":5126,
			"count":4,
			"type":"VEC3"
		},
		{
			"bufferView":31,
			"componentType":5126,
			"count":4,
			"type":"VEC2"
		},
		{
			"bufferView":32,
			"componentType":5126,
			"count":4,
			"type":"VEC4"
		},
		{
			"bufferView":33,
			"componentType":5123,
			"count":6,
			"type":"SCALAR"
		},
		{
			"bufferView":34,
			"componentType":5126,
			"count":196,
			"max":[
				1.3320000171661377,
				0,
				0.009000000543892384
			],
			"min":[
				0.20200000703334808,
				0,
				-0.7280000448226929
			],
			"type":"VEC3"
		},
		{
			"bufferView":35,
			"componentType":5126,
			"count":196,
			"type":"VEC3"
		},
		{
			"bufferView":36,
			"componentType":5126,
			"count":196,
			"type":"VEC2"
		},
		{
			"bufferView":37,
			"componentType":5126,
			"count":196,
			"type":"VEC4"
		},
		{
			"bufferView":38,
			"componentType":5123,
			"count":582,
			"type":"SCALAR"
		},
		{
			"bufferView":39,
			"componentType":5126,
			"count":4,
			"max":[
				1,
				0,
				1
			],
			"min":[
				-1,
				0,
				-1
			],
			"type":"VEC3"
		},
		{
			"bufferView":40,
			"componentType":5126,
			"count":4,
			"type":"VEC3"
		},
		{
			"bufferView":41,
			"componentType":5126,
			"count":4,
			"type":"VEC2"
		},
		{
			"bufferView":42,
			"componentType":5126,
			"count":4,
			"type":"VEC4"
		},
		{
			"bufferView":43,
			"componentType":5126,
			"count":281,
			"max":[
				1.3320000171661377,
				0,
				0.009000000543892384
			],
			"min":[
				0.03400000184774399,
				0,
				-0.7280000448226929
			],
			"type":"VEC3"
		},
		{
			"bufferView":44,
			"componentType":5126,
			"count":281,
			"type":"VEC3"
		},
		{
			"bufferView":45,
			"componentType":5126,
			"count":281,
			"type":"VEC2"
		},
		{
			"bufferView":46,
			"componentType":5126,
			"count":281,
			"type":"VEC4"
		},
		{
			"bufferView":47,
			"componentType":5123,
			"count":837,
			"type":"SCALAR"
		},
		{
			"bufferView":48,
			"componentType":5126,
			"count":4,
			"max":[
				1,
				0,
				1
			],
			"min":[
				-1,
				0,
				-1
			],
			"type":"VEC3"
		},
		{
			"bufferView":49,
			"componentType":5126,
			"count":4,
			"type":"VEC3"
		},
		{
			"bufferView":50,
			"componentType":5126,
			"count":4,
			"type":"VEC2"
		},
		{
			"bufferView":51,
			"componentType":5126,
			"count":4,
			"type":"VEC4"
		},
		{
			"bufferView":52,
			"componentType":5126,
			"count":339,
			"max":[
				1.3320000171661377,
				0,
				0.009000000543892384
			],
			"min":[
				0.06400000303983688,
				0,
				-0.7280000448226929
			],
			"type":"VEC3"
		},
		{
			"bufferView":53,
			"componentType":5126,
			"count":339,
			"type":"VEC3"
		},
		{
			"bufferView":54,
			"componentType":5126,
			"count":339,
			"type":"VEC2"
		},
		{
			"bufferView":55,
			"componentType":5126,
			"count":339,
			"type":"VEC4"
		},
		{
			"bufferView":56,
			"componentType":5123,
			"count":1011,
			"type":"SCALAR"
		},
		{
			"bufferView":57,
			"componentType":5126,
			"count":4,
			"max":[
				1,
				0,
				1
			],
			"min":[
				-1,
				0,
				-1
			],
			"type":"VEC3"
		},
		{
			"bufferView":58,
			"componentType":5126,
			"count":4,
			"type":"VEC3"
		},
		{
			"bufferView":59,
			"componentType":5126,
			"count":4,
			"type":"VEC2"
		},
		{
			"bufferView":60,
			"componentType":5126,
			"count":4,
			"type":"VEC4"
		},
		{
			"bufferView":61,
			"componentType":5126,
			"count":207,
			"max":[
				1.3320000171661377,
				0,
				0.009000000543892384
			],
			"min":[
				0.01100000087171793,
				0,
				-0.7280000448226929
			],
			"type":"VEC3"
		},
		{
			"bufferView":62,
			"componentType":5126,
			"count":207,
			"type":"VEC3"
		},
		{
			"bufferView":63,
			"componentType":5126,
			"count":207,
			"type":"VEC2"
		},
		{
			"bufferView":64,
			"componentType":5126,
			"count":207,
			"type":"VEC4"
		},
		{
			"bufferView":65,
			"componentType":5123,
			"count":621,
			"type":"SCALAR"
		},
		{
			"bufferView":66,
			"componentType":5126,
			"count":4,
			"max":[
				1,
				0,
				1
			],
			"min":[
				-1,
				0,
				-1
			],
			"type":"VEC3"
		},
		{
			"bufferView":67,
			"componentType":5126,
			"count":4,
			"type":"VEC3"
		},
		{
			"bufferView":68,
			"componentType":5126,
			"count":4,
			"type":"VEC2"
		},
		{
			"bufferView":69,
			"componentType":5126,
			"count":4,
			"type":"VEC4"
		},
		{
			"bufferView":70,
			"componentType":5126,
			"count":270,
			"max":[
				1.3320000171661377,
				0,
				0.009000000543892384
			],
			"min":[
				0.05000000074505806,
				0,
				-0.7280000448226929
			],
			"type":"VEC3"
		},
		{
			"bufferView":71,
			"componentType":5126,
			"count":270,
			"type":"VEC3"
		},
		{
			"bufferView":72,
			"componentType":5126,
			"count":270,
			"type":"VEC2"
		},
		{
			"bufferView":73,
			"componentType":5126,
			"count":270,
			"type":"VEC4"
		},
		{
			"bufferView":74,
			"componentType":5123,
			"count":804,
			"type":"SCALAR"
		},
		{
			"bufferView":75,
			"componentType":5126,
			"count":4,
			"max":[
				1,
				0,
				1
			],
			"min":[
				-1,
				0,
				-1
			],
			"type":"VEC3"
		},
		{
			"bufferView":76,
			"componentType":5126,
			"count":4,
			"type":"VEC3"
		},
		{
			"bufferView":77,
			"componentType":5126,
			"count":4,
			"type":"VEC2"
		},
		{
			"bufferView":78,
			"componentType":5126,
			"count":4,
			"type":"VEC4"
		},
		{
			"bufferView":79,
			"componentType":5126,
			"count":313,
			"max":[
				1.3320000171661377,
				0,
				0.009000000543892384
			],
			"min":[
				0.04400000348687172,
				0,
				-0.7280000448226929
			],
			"type":"VEC3"
		},
		{
			"bufferView":80,
			"componentType":5126,
			"count":313,
			"type":"VEC3"
		},
		{
			"bufferView":81,
			"componentType":5126,
			"count":313,
			"type":"VEC2"
		},
		{
			"bufferView":82,
			"componentType":5126,
			"count":313,
			"type":"VEC4"
		},
		{
			"bufferView":83,
			"componentType":5123,
			"count":939,
			"type":"SCALAR"
		},
		{
			"bufferView":84,
			"componentType":5126,
			"count":4800,
			"max":[
				90,
				25,
				1.9010000228881836
			],
			"min":[
				-36,
				-3,
				-1.0989434719085693
			],
			"type":"VEC3"
		},
		{
			"bufferView":85,
			"componentType":5126,
			"count":4800,
			"type":"VEC3"
		},
		{
			"bufferView":86,
			"componentType":5126,
			"count":4800,
			"type":"VEC2"
		},
		{
			"bufferView":87,
			"componentType":5126,
			"count":4800,
			"type":"VEC4"
		},
		{
			"bufferView":88,
			"componentType":5123,
			"count":7200,
			"type":"SCALAR"
		},
		{
			"bufferView":89,
			"componentType":5126,
			"count":4800,
			"max":[
				90,
				25,
				1.9010000228881836
			],
			"min":[
				-36,
				-3,
				-1.0989434719085693
			],
			"type":"VEC3"
		},
		{
			"bufferView":90,
			"componentType":5126,
			"count":4800,
			"type":"VEC3"
		},
		{
			"bufferView":91,
			"componentType":5126,
			"count":4800,
			"type":"VEC2"
		},
		{
			"bufferView":92,
			"componentType":5126,
			"count":4800,
			"type":"VEC4"
		},
		{
			"bufferView":93,
			"componentType":5126,
			"count":109,
			"max":[
				121,
				23,
				10
			],
			"min":[
				-3,
				-3,
				0
			],
			"type":"VEC3"
		},
		{
			"bufferView":94,
			"componentType":5123,
			"count":216,
			"type":"SCALAR"
		},
		{
			"bufferView":95,
			"componentType":5126,
			"count":24,
			"max":[
				1,
				1,
				1
			],
			"min":[
				-1,
				-1,
				-1
			],
			"type":"VEC3"
		},
		{
			"bufferView":96,
			"componentType":5126,
			"count":24,
			"type":"VEC3"
		},
		{
			"bufferView":97,
			"componentType":5126,
			"count":24,
			"type":"VEC2"
		},
		{
			"bufferView":98,
			"componentType":5126,
			"count":24,
			"type":"VEC4"
		},
		{
			"bufferView":99,
			"componentType":5123,
			"count":36,
			"type":"SCALAR"
		},
		{
			"bufferView":100,
			"componentType":5126,
			"count":96,
			"max":[
				1.005000114440918,
				0.9999847412109375,
				1.1000018119812012
			],
			"min":[
				-1.005000114440918,
				-401,
				-0.9999999403953552
			],
			"type":"VEC3"
		},
		{
			"bufferView":101,
			"componentType":5126,
			"count":96,
			"type":"VEC3"
		},
		{
			"bufferView":102,
			"componentType":5126,
			"count":96,
			"type":"VEC2"
		},
		{
			"bufferView":103,
			"componentType":5126,
			"count":96,
			"type":"VEC4"
		},
		{
			"bufferView":104,
			"componentType":5123,
			"count":144,
			"type":"SCALAR"
		}
	],
	"bufferViews":[
		{
			"buffer":0,
			"byteLength":7596,
			"byteOffset":0,
			"target":34962
		},
		{
			"buffer":0,
			"byteLength":7596,
			"byteOffset":7596,
			"target":34962
		},
		{
			"buffer":0,
			"byteLength":5064,
			"byteOffset":15192,
			"target":34962
		},
		{
			"buffer":0,
			"byteLength":10128,
			"byteOffset":20256,
			"target":34962
		},
		{
			"buffer":0,
			"byteLength":3762,
			"byteOffset":30384,
			"target":34963
		},
		{
			"buffer":0,
			"byteLength":4704,
			"byteOffset":34148,
			"target":34962
		},
		{
			"buffer":0,
			"byteLength":4704,
			"byteOffset":38852,
			"target":34962
		},
		{
			"buffer":0,
			"byteLength":3136,
			"byteOffset":43556,
			"target":34962
		},
		{
			"buffer":0,
			"byteLength":6272,
			"byteOffset":46692,
			"target":34962
		},
		{
			"buffer":0,
			"byteLength":1152,
			"byteOffset":52964,
			"target":34963
		},
		{
			"buffer":0,
			"byteLength":8328,
			"byteOffset":54116,
			"target":34962
		},
		{
			"buffer":0,
			"byteLength":8328,
			"byteOffset":62444,
			"target":34962
		},
		{
			"buffer":0,
			"byteLength":5552,
			"byteOffset":70772,
			"target":34962
		},
		{
			"buffer":0,
			"byteLength":11104,
			"byteOffset":76324,
			"target":34962
		},
		{
			"buffer":0,
			"byteLength":4068,
			"byteOffset":87428,
			"target":34963
		},
		{
			"buffer":0,
			"byteLength":4704,
			"byteOffset":91496,
			"target":34962
		},
		{
			"buffer":0,
			"byteLength":4704,
			"byteOffset":96200,
			"target":34962
		},
		{
			"buffer":0,
			"byteLength":3136,
			"byteOffset":100904,
			"target":34962
		},
		{
			"buffer":0,
			"byteLength":6272,
			"byteOffset":104040,
			"target":34962
		},
		{
			"buffer":0,
			"byteLength":23808,
			"byteOffset":110312,
			"target":34962
		},
		{
			"buffer":0,
			"byteLength":23808,
			"byteOffset":134120,
			"target":34962
		},
		{
			"buffer":0,
			"byteLength":15872,
			"byteOffset":157928,
			"target":34962
		},
		{
			"buffer":0,
			"byteLength":31744,
			"byteOffset":173800,
			"target":34962
		},
		{
			"buffer":0,
			"byteLength":5760,
			"byteOffset":205544,
			"target":34963
		},
		{
			"buffer":0,
			"byteLength":213312,
			"byteOffset":211304,
			"target":34962
		},
		{
			"buffer":0,
			"byteLength":213312,
			"byteOffset":424616,
			"target":34962
		},
		{
			"buffer":0,
			"byteLength":142208,
			"byteOffset":637928,
			"target":34962
		},
		{
			"buffer":0,
			"byteLength":284416,
			"byteOffset":780136,
			"target":34962
		},
		{
			"buffer":0,
			"byteLength":53040,
			"byteOffset":1064552,
			"target":34963
		},
		{
			"buffer":0,
			"byteLength":48,
			"byteOffset":1117592,
			"target":34962
		},
		{
			"buffer":0,
			"byteLength":48,
			"byteOffset":1117640,
			"target":34962
		},
		{
			"buffer":0,
			"byteLength":32,
			"byteOffset":1117688,
			"target":34962
		},
		{
			"buffer":0,
			"byteLength":64,
			"byteOffset":1117720,
			"target":34962
		},
		{
			"buffer":0,
			"byteLength":12,
			"byteOffset":1117784,
			"target":34963
		},
		{
			"buffer":0,
			"byteLength":2352,
			"byteOffset":1117796,
			"target":34962
		},
		{
			"buffer":0,
			"byteLength":2352,
			"byteOffset":1120148,
			"target":34962
		},
		{
			"buffer":0,
			"byteLength":1568,
			"byteOffset":1122500,
			"target":34962
		},
		{
			"buffer":0,
			"byteLength":3136,
			"byteOffset":1124068,
			"target":34962
		},
		{
			"buffer":0,
			"byteLength":1164,
			"byteOffset":1127204,
			"target":34963
		},
		{
			"buffer":0,
			"byteLength":48,
			"byteOffset":1128368,
			"target":34962
		},
		{
			"buffer":0,
			"byteLength":48,
			"byteOffset":1128416,
			"target":34962
		},
		{
			"buffer":0,
			"byteLength":32,
			"byteOffset":1128464,
			"target":34962
		},
		{
			"buffer":0,
			"byteLength":64,
			"byteOffset":1128496,
			"target":34962
		},
		{
			"buffer":0,
			"byteLength":3372,
			"byteOffset":1128560,
			"target":34962
		},
		{
			"buffer":0,
			"byteLength":3372,
			"byteOffset":1131932,
			"target":34962
		},
		{
			"buffer":0,
			"byteLength":2248,
			"byteOffset":1135304,
			"target":34962
		},
		{
			"buffer":0,
			"byteLength":4496,
			"byteOffset":1137552,
			"target":34962
		},
		{
			"buffer":0,
			"byteLength":1674,
			"byteOffset":1142048,
			"target":34963
		},
		{
			"buffer":0,
			"byteLength":48,
			"byteOffset":1143724,
			"target":34962
		},
		{
			"buffer":0,
			"byteLength":48,
			"byteOffset":1143772,
			"target":34962
		},
		{
			"buffer":0,
			"byteLength":32,
			"byteOffset":1143820,
			"target":34962
		},
		{
			"buffer":0,
			"byteLength":64,
			"byteOffset":1143852,
			"target":34962
		},
		{
			"buffer":0,
			"byteLength":4068,
			"byteOffset":1143916,
			"target":34962
		},
		{
			"buffer":0,
			"byteLength":4068,
			"byteOffset":1147984,
			"target":34962
		},
		{
			"buffer":0,
			"byteLength":2712,
			"byteOffset":1152052,
			"target":34962
		},
		{
			"buffer":0,
			"byteLength":5424,
			"byteOffset":1154764,
			"target":34962
		},
		{
			"buffer":0,
			"byteLength":2022,
			"byteOffset":1160188,
			"target":34963
		},
		{
			"buffer":0,
			"byteLength":48,
			"byteOffset":1162212,
			"target":34962
		},
		{
			"buffer":0,
			"byteLength":48,
			"byteOffset":1162260,
			"target":34962
		},
		{
			"buffer":0,
			"byteLength":32,
			"byteOffset":1162308,
			"target":34962
		},
		{
			"buffer":0,
			"byteLength":64,
			"byteOffset":1162340,
			"target":34962
		},
		{
			"buffer":0,
			"byteLength":2484,
			"byteOffset":1162404,
			"target":34962
		},
		{
			"buffer":0,
			"byteLength":2484,
			"byteOffset":1164888,
			"target":34962
		},
		{
			"buffer":0,
			"byteLength":1656,
			"byteOffset":1167372,
			"target":34962
		},
		{
			"buffer":0,
			"byteLength":3312,
			"byteOffset":1169028,
			"target":34962
		},
		{
			"buffer":0,
			"byteLength":1242,
			"byteOffset":1172340,
			"target":34963
		},
		{
			"buffer":0,
			"byteLength":48,
			"byteOffset":1173584,
			"target":34962
		},
		{
			"buffer":0,
			"byteLength":48,
			"byteOffset":1173632,
			"target":34962
		},
		{
			"buffer":0,
			"byteLength":32,
			"byteOffset":1173680,
			"target":34962
		},
		{
			"buffer":0,
			"byteLength":64,
			"byteOffset":1173712,
			"target":34962
		},
		{
			"buffer":0,
			"byteLength":3240,
			"byteOffset":1173776,
			"target":34962
		},
		{
			"buffer":0,
			"byteLength":3240,
			"byteOffset":1177016,
			"target":34962
		},
		{
			"buffer":0,
			"byteLength":2160,
			"byteOffset":1180256,
			"target":34962
		},
		{
			"buffer":0,
			"byteLength":4320,
			"byteOffset":1182416,
			"target":34962
		},
		{
			"buffer":0,
			"byteLength":1608,
			"byteOffset":1186736,
			"target":34963
		},
		{
			"buffer":0,
			"byteLength":48,
			"byteOffset":1188344,
			"target":34962
		},
		{
			"buffer":0,
			"byteLength":48,
			"byteOffset":1188392,
			"target":34962
		},
		{
			"buffer":0,
			"byteLength":32,
			"byteOffset":1188440,
			"target":34962
		},
		{
			"buffer":0,
			"byteLength":64,
			"byteOffset":1188472,
			"target":34962
		},
		{
			"buffer":0,
			"byteLength":3756,
			"byteOffset":1188536,
			"target":34962
		},
		{
			"buffer":0,
			"byteLength":3756,
			"byteOffset":1192292,
			"target":34962
		},
		{
			"buffer":0,
			"byteLength":2504,
			"byteOffset":1196048,
			"target":34962
		},
		{
			"buffer":0,
			"byteLength":5008,
			"byteOffset":1198552,
			"target":34962
		},
		{
			"buffer":0,
			"byteLength":1878,
			"byteOffset":1203560,
			"target":34963
		},
		{
			"buffer":0,
			"byteLength":57600,
			"byteOffset":1205440,
			"target":34962
		},
		{
			"buffer":0,
			"byteLength":57600,
			"byteOffset":1263040,
			"target":34962
		},
		{
			"buffer":0,
			"byteLength":38400,
			"byteOffset":1320640,
			"target":34962
		},
		{
			"buffer":0,
			"byteLength":76800,
			"byteOffset":1359040,
			"target":34962
		},
		{
			"buffer":0,
			"byteLength":14400,
			"byteOffset":1435840,
			"target":34963
		},
		{
			"buffer":0,
			"byteLength":57600,
			"byteOffset":1450240,
			"target":34962
		},
		{
			"buffer":0,
			"byteLength":57600,
			"byteOffset":1507840,
			"target":34962
		},
		{
			"buffer":0,
			"byteLength":38400,
			"byteOffset":1565440,
			"target":34962
		},
		{
			"buffer":0,
			"byteLength":76800,
			"byteOffset":1603840,
			"target":34962
		},
		{
			"buffer":0,
			"byteLength":1308,
			"byteOffset":1680640,
			"target":34962
		},
		{
			"buffer":0,
			"byteLength":432,
			"byteOffset":1681948,
			"target":34963
		},
		{
			"buffer":0,
			"byteLength":288,
			"byteOffset":1682380,
			"target":34962
		},
		{
			"buffer":0,
			"byteLength":288,
			"byteOffset":1682668,
			"target":34962
		},
		{
			"buffer":0,
			"byteLength":192,
			"byteOffset":1682956,
			"target":34962
		},
		{
			"buffer":0,
			"byteLength":384,
			"byteOffset":1683148,
			"target":34962
		},
		{
			"buffer":0,
			"byteLength":72,
			"byteOffset":1683532,
			"target":34963
		},
		{
			"buffer":0,
			"byteLength":1152,
			"byteOffset":1683604,
			"target":34962
		},
		{
			"buffer":0,
			"byteLength":1152,
			"byteOffset":1684756,
			"target":34962
		},
		{
			"buffer":0,
			"byteLength":768,
			"byteOffset":1685908,
			"target":34962
		},
		{
			"buffer":0,
			"byteLength":1536,
			"byteOffset":1686676,
			"target":34962
		},
		{
			"buffer":0,
			"byteLength":288,
			"byteOffset":1688212,
			"target":34963
		}
	],
	"buffers":[
		{
			"byteLength":1688500,
			"uri":"scene2.bin"
		}
	]
}
